<?xml version="1.0" encoding="UTF-8"?>
<svg id="Capa_1" data-name="Capa 1" xmlns="http://www.w3.org/2000/svg" viewBox="0 0 800 626.07">
  <defs>
    <style>
      .cls-1 {
        fill: #fff;
        stroke-width: 0px;
      }
    </style>
  </defs>
  <path class="cls-1" d="M784.44,383.56c-9.88-5.46-22.43-4.26-34.42,3.29l-221.44,139.44c-6.16,3.88-8.01,12.02-4.13,18.19,3.88,6.16,12.02,8.01,18.19,4.13l221.44-139.44c4.68-2.95,7.24-2.73,7.61-2.52.38.21,1.93,2.26,1.93,7.79,0,14.86-11.03,34.83-23.6,42.74l-214.68,135.18c-11.41,7.19-21.85,9.16-28.63,5.42-6.78-3.74-10.67-13.63-10.67-27.12,0-34.18,24.43-78.43,53.35-96.64l244.43-153.92c3.83-2.41,6.16-6.63,6.16-11.16s-2.33-8.75-6.16-11.16L324.16,2.03c-4.29-2.7-9.76-2.7-14.05,0L62.7,157.82C27.54,179.96,0,229.85,0,271.39v7.03c0,41.55,27.54,91.43,62.7,113.57l367.98,231.72c6.16,3.88,14.3,2.03,18.19-4.13,3.88-6.16,2.03-14.3-4.13-18.19L76.75,369.68c-27.31-17.19-50.38-58.98-50.38-91.26v-7.03c0-32.27,23.07-74.06,50.38-91.26L317.13,28.77l444.93,280.17-226.71,142.76c-36.83,23.19-65.67,75.44-65.67,118.96,0,23.73,8.63,41.56,24.3,50.21,6.29,3.47,13.23,5.2,20.59,5.2,10.96,0,22.83-3.83,34.84-11.39l214.68-135.18c20.14-12.68,35.92-41.26,35.92-65.06,0-14.16-5.67-25.42-15.55-30.87Z"/>
  <path class="cls-1" d="M621.82,322.13c4.38,0,8.66-2.18,11.17-6.16,3.88-6.16,2.03-14.3-4.13-18.19L324.16,105.92c-6.16-3.88-14.3-2.03-18.19,4.13-3.88,6.16-2.03,14.3,4.13,18.19l304.7,191.87c2.18,1.37,4.61,2.03,7.01,2.03Z"/>
  <path class="cls-1" d="M569.1,357.13c4.39,0,8.68-2.19,11.18-6.18,3.87-6.17,2-14.31-4.17-18.18l-128.72-80.71c-6.17-3.87-14.31-2-18.18,4.17-3.87,6.17-2,14.31,4.17,18.18l128.72,80.71c2.18,1.37,4.6,2.02,6.99,2.02Z"/>
  <path class="cls-1" d="M393.67,286.76c-6.18-3.86-14.31-1.98-18.17,4.2-3.86,6.18-1.98,14.31,4.2,18.17l129.71,80.99c2.17,1.36,4.59,2,6.97,2,4.4,0,8.7-2.2,11.2-6.2,3.86-6.18,1.98-14.31-4.2-18.17l-129.71-80.99Z"/>
  <path class="cls-1" d="M255.31,140.43l-109.59,69.02c-3.85,2.42-6.17,6.65-6.16,11.2s2.36,8.76,6.22,11.16l130.7,81.26c2.13,1.33,4.55,1.99,6.96,1.99s4.98-.71,7.16-2.11l29.11-18.81c6.12-3.95,7.87-12.12,3.92-18.23-3.95-6.12-12.12-7.87-18.23-3.92l-22.09,14.28-105.7-65.72,84.75-53.37,104.16,65.31-12.14,7.85c-6.12,3.95-7.87,12.12-3.92,18.23,3.95,6.12,12.12,7.87,18.23,3.92l29.54-19.09c3.79-2.45,6.06-6.66,6.03-11.17-.03-4.51-2.36-8.69-6.18-11.08l-128.73-80.72c-4.29-2.69-9.74-2.69-14.03.01Z"/>
  <path class="cls-1" d="M474.88,420.89c3.85-6.19,1.95-14.32-4.24-18.16l-130.7-81.27c-6.19-3.85-14.32-1.95-18.16,4.24-3.85,6.19-1.95,14.32,4.24,18.16l130.7,81.27c2.17,1.35,4.57,1.99,6.95,1.99,4.41,0,8.71-2.21,11.21-6.23Z"/>
  <path class="cls-1" d="M94.11,252.13c-3.85,6.19-1.95,14.32,4.24,18.16l322.6,200.58c2.17,1.35,4.57,1.99,6.95,1.99,4.41,0,8.71-2.21,11.21-6.23,3.85-6.19,1.95-14.32-4.24-18.16L112.27,247.9c-6.19-3.85-14.32-1.95-18.16,4.24Z"/>
</svg>